<svg width="145" height="58" viewBox="0 0 145 58" fill="none" xmlns="http://www.w3.org/2000/svg">
<path d="M90.4828 44.9352C88.8042 44.9352 87.4394 44.4438 86.3879 43.4612C85.3585 42.4785 84.8438 41.1943 84.8438 39.6086C84.8438 38.8939 84.9894 38.2016 85.2799 37.5315C85.571 36.8615 86.0746 36.2139 86.7902 35.5885L96.1887 27.2467C96.2335 27.2021 96.2667 27.1574 96.2894 27.1127C96.3115 27.0457 96.3226 26.9899 96.3226 26.9453C96.3226 26.8782 96.3005 26.8223 96.2556 26.7777C96.2335 26.7331 96.1887 26.6996 96.1212 26.6772C96.0769 26.6326 95.9983 26.6102 95.8865 26.6102H85.3469V21.4846H97.7328C98.8513 21.4846 99.8358 21.7191 100.686 22.1881C101.537 22.6347 102.197 23.249 102.667 24.0307C103.136 24.8123 103.371 25.7392 103.371 26.8112C103.371 27.5037 103.226 28.1959 102.935 28.8883C102.644 29.5583 102.163 30.1837 101.492 30.7644L91.9931 39.1731C91.9704 39.1955 91.9372 39.2289 91.8924 39.2736C91.8702 39.2959 91.8475 39.3295 91.8254 39.374C91.8254 39.3965 91.8254 39.4299 91.8254 39.4746C91.8254 39.5416 91.8475 39.6086 91.8924 39.6756C91.9372 39.7202 91.9931 39.765 92.0601 39.8096C92.1497 39.832 92.2394 39.8431 92.3285 39.8431H105.931L105.058 44.9352H90.4828Z" fill="#1E1E1E"/>
<path d="M62.738 44.9352V21.4846H73.6467C75.3026 21.4846 76.8019 21.842 78.1445 22.5566C79.4871 23.249 80.5608 24.2205 81.3666 25.4712C82.1724 26.6996 82.5747 28.1402 82.5747 29.7928C82.5747 31.2222 82.2283 32.5399 81.5343 33.7459C80.863 34.9296 79.957 35.89 78.8158 36.627L80.3931 39.2401C80.5276 39.441 80.6731 39.5974 80.8298 39.7091C81.0085 39.7984 81.2437 39.8431 81.5343 39.8431H83.4143V44.9352H79.9232C78.8047 44.9352 77.8086 44.6896 76.9363 44.1982C76.0636 43.6845 75.3923 43.0257 74.9224 42.2216L72.5393 38.1346C72.4048 38.1346 72.2703 38.1346 72.1364 38.1346C72.0019 38.1346 71.879 38.1346 71.7673 38.1346H69.149V44.9352H62.738ZM69.149 33.0424H72.9754C73.5349 33.0424 74.0496 32.9195 74.5195 32.6739C75.0115 32.4059 75.3923 32.0263 75.6607 31.5349C75.9518 31.0435 76.0968 30.474 76.0968 29.8263C76.0968 29.1787 75.9518 28.6203 75.6607 28.1513C75.3696 27.6822 74.9894 27.3248 74.5195 27.0793C74.0496 26.8112 73.5349 26.6772 72.9754 26.6772H69.149V33.0424Z" fill="#1E1E1E"/>
<path d="M47.4429 45.3706C45.5857 45.3706 43.8851 45.0691 42.3411 44.4661C40.7971 43.8407 39.4657 42.981 38.3469 41.8866C37.2504 40.7699 36.389 39.4745 35.7624 38.0004C35.1582 36.5264 34.8561 34.9295 34.8561 33.2098C34.8561 31.4901 35.1582 29.8933 35.7624 28.4192C36.389 26.9228 37.2504 25.6275 38.3469 24.5331C39.4657 23.4387 40.7971 22.5901 42.3411 21.987C43.8851 21.3616 45.5857 21.049 47.4429 21.049C49.3226 21.049 51.0232 21.3616 52.5448 21.987C54.0888 22.5901 55.4204 23.4387 56.5389 24.5331C57.658 25.6275 58.5191 26.9228 59.1235 28.4192C59.7278 29.8933 60.03 31.4901 60.03 33.2098C60.03 34.9295 59.7278 36.5264 59.1235 38.0004C58.5191 39.4745 57.658 40.7699 56.5389 41.8866C55.4204 42.981 54.0888 43.8407 52.5448 44.4661C51.0232 45.0691 49.3226 45.3706 47.4429 45.3706ZM47.4429 40.0775C48.3603 40.0775 49.1883 39.91 49.9268 39.575C50.6876 39.2176 51.3365 38.7263 51.8735 38.101C52.4329 37.4533 52.8469 36.7163 53.1154 35.8899C53.4063 35.0635 53.5518 34.1702 53.5518 33.2098C53.5518 32.2494 53.4063 31.3562 53.1154 30.5298C52.8469 29.6811 52.4329 28.9441 51.8735 28.3187C51.3365 27.6933 50.6876 27.2132 49.9268 26.8781C49.1883 26.5207 48.3603 26.3422 47.4429 26.3422C46.5478 26.3422 45.72 26.5207 44.9591 26.8781C44.1983 27.2132 43.5494 27.6933 43.0124 28.3187C42.4754 28.9441 42.0614 29.6811 41.7705 30.5298C41.4796 31.3562 41.3341 32.2494 41.3341 33.2098C41.3341 34.1702 41.4796 35.0635 41.7705 35.8899C42.0614 36.7163 42.4754 37.4533 43.0124 38.101C43.5494 38.7263 44.1983 39.2176 44.9591 39.575C45.72 39.91 46.5478 40.0775 47.4429 40.0775Z" fill="#1E1E1E"/>
<path d="M16.6147 44.9352V28.5533C16.6147 27.2133 16.9391 26.0184 17.5881 24.9687C18.2369 23.8967 19.1209 23.048 20.2397 22.4226C21.3809 21.7972 22.6564 21.4846 24.0661 21.4846H33.095V26.6772H25.0059C24.4464 26.6772 23.9765 26.8671 23.5961 27.2467C23.2158 27.6264 23.0256 28.0843 23.0256 28.6203V31.6019H32.0209V36.694H23.0256V44.9352H16.6147Z" fill="#1E1E1E"/>
<path d="M104.604 44.4327L109.666 25.1697C110.269 22.8917 112.216 21.4846 114.659 21.4846H116.535C118.979 21.4846 120.926 22.8917 121.528 25.1697L126.591 44.4327C126.661 44.7007 126.485 44.9352 126.201 44.9352H121.315C121.032 44.9352 120.714 44.7007 120.643 44.4327L119.438 39.5081C119.368 39.2736 119.12 39.0726 118.872 39.0726H112.322C112.074 39.0726 111.827 39.2736 111.756 39.5081L110.552 44.4327C110.481 44.7007 110.162 44.9352 109.879 44.9352H104.993C104.71 44.9352 104.533 44.7007 104.604 44.4327ZM115.155 25.8397L112.676 35.823C112.57 36.225 112.889 36.5935 113.349 36.5935H117.846C118.306 36.5935 118.624 36.225 118.518 35.823L116.04 25.8397C115.969 25.5047 115.792 25.3372 115.615 25.3372C115.438 25.3372 115.261 25.5047 115.155 25.8397Z" fill="#1E1E1E"/>
<path d="M25.1086 22.5308L25.0727 22.5083C25.0975 22.5075 25.1224 22.5067 25.1474 22.506L25.1086 22.5308Z" fill="#1E1E1E"/>
<path d="M33.4306 17.253L30.544 19.0834V20.8145C24.838 20.8815 21.6158 20.5465 19.669 22.0876V19.1865C22.0533 18.4701 26.6628 17.6676 30.4769 19.2065V18.0969C27.1671 16.377 22.3037 16.7099 19.6019 18.0969V19.0955L16.6482 17.253L25.1088 11.8363L33.4306 17.253Z" fill="#1E1E1E"/>
</svg>
